<svg width="500" height="243" viewBox="0 0 500 243" fill="none" xmlns="http://www.w3.org/2000/svg">
<path d="M72.6416 223.763L112.076 134.008H145.283V137.686H141.297C135.968 137.686 132.492 138.128 130.841 139.001C129.19 139.873 128.089 141.524 127.525 143.913C126.975 146.316 126.693 152.021 126.693 161.027V214.22C126.693 222.756 126.908 228.34 127.338 230.984C127.767 233.615 128.841 235.588 130.572 236.863C132.304 238.138 135.619 238.782 140.518 238.782H145.31V242.46H93.5804V238.782H97.4192C101.996 238.782 105.177 238.192 106.962 237.024C108.748 235.843 109.889 234.017 110.399 231.548C110.895 229.065 111.164 223.293 111.164 214.233V145.202L68.3062 242.474H64.5613L21.3146 145.215V208.73C21.3146 217.428 21.5831 223.347 22.1066 226.488C22.6434 229.642 24.2944 232.393 27.0594 234.769C29.8244 237.145 33.7169 238.487 38.71 238.809V242.487H0V238.809C4.6307 238.541 8.40237 237.279 11.2882 235.011C14.1874 232.742 15.9591 229.951 16.59 226.649C17.2343 223.347 17.543 217.213 17.543 208.247V161.054C17.543 152.423 17.2879 146.84 16.7779 144.33C16.2678 141.82 15.2075 140.088 13.5834 139.135C11.9593 138.169 8.40237 137.699 2.92607 137.699H0V134.021H32.9652L72.6282 223.776L72.6416 223.763Z" fill="#0B1A03"/>
<path d="M218.958 201.984H177.859L175.067 208.87C170.92 218.842 168.839 225.352 168.839 228.386C168.839 231.634 169.94 234.104 172.154 235.781C174.356 237.459 177.201 238.305 180.651 238.305V241.982H148.478V238.305C153.269 237.553 156.826 235.862 159.175 233.218C161.524 230.587 164.343 225.017 167.645 216.547C167.913 215.742 169.188 212.655 171.483 207.272L202.932 132H206.046L242.206 218.158L247.158 229.513C248.272 232.077 249.789 234.09 251.668 235.553C253.547 237.03 256.393 237.942 260.165 238.318V241.996H217.616V238.318C222.837 238.318 226.354 237.929 228.193 237.164C230.032 236.399 230.944 234.855 230.944 232.56C230.944 231.392 229.723 227.889 227.267 222.077L218.958 201.997V201.984ZM217.589 198.387L198.435 152.147L179.362 198.387H217.589Z" fill="#0B1A03"/>
<path d="M352.886 188.073H296.378V214.233C296.378 222.77 296.593 228.353 297.022 230.997C297.452 233.628 298.525 235.601 300.257 236.876C301.988 238.152 305.263 238.796 310.109 238.796H312.901V242.474H264.205V238.796H266.996C271.627 238.796 274.835 238.205 276.62 237.037C278.405 235.856 279.546 234.031 280.056 231.561C280.553 229.078 280.821 223.306 280.821 214.246V161.054C280.821 152.423 280.566 146.84 280.056 144.33C279.56 141.82 278.486 140.088 276.862 139.135C275.238 138.169 271.681 137.699 266.205 137.699H264.205V134.021H312.901V137.699H310.901C305.626 137.699 302.176 138.142 300.525 139.014C298.874 139.887 297.774 141.538 297.21 143.927C296.66 146.329 296.378 152.034 296.378 161.04V182.556H352.886V161.04C352.886 152.41 352.644 146.826 352.174 144.316C351.691 141.806 350.644 140.075 349.02 139.122C347.396 138.155 343.839 137.686 338.363 137.686H335.491V134.008H384.75V137.686H383.153C377.824 137.686 374.348 138.128 372.697 139.001C371.046 139.873 369.946 141.524 369.382 143.913C368.832 146.316 368.55 152.021 368.55 161.027V214.22C368.55 222.756 368.751 228.34 369.154 230.984C369.556 233.615 370.63 235.588 372.388 236.863C374.147 238.138 377.449 238.782 382.294 238.782H384.764V242.46H335.504V238.782H339.249C343.826 238.782 347.007 238.192 348.779 237.024C350.564 235.856 351.691 234.017 352.174 231.548C352.658 229.078 352.886 223.293 352.886 214.233V188.073Z" fill="#0B1A03"/>
<path d="M458.807 201.984H417.694L414.902 208.87C410.755 218.842 408.674 225.352 408.674 228.386C408.674 231.634 409.775 234.104 411.99 235.781C414.191 237.459 417.037 238.305 420.499 238.305V241.982H388.326V238.305C393.118 237.553 396.675 235.862 399.024 233.218C401.359 230.587 404.191 225.017 407.48 216.547C407.748 215.742 409.023 212.655 411.319 207.272L442.767 132H445.881L482.041 218.158L486.994 229.513C488.108 232.077 489.611 234.09 491.504 235.553C493.383 237.03 496.228 237.942 500 238.318V241.996H457.451V238.318C462.672 238.318 466.189 237.929 468.028 237.164C469.867 236.399 470.779 234.855 470.779 232.56C470.779 231.392 469.558 227.889 467.102 222.077L458.793 201.997L458.807 201.984ZM457.451 198.387L438.297 152.147L419.224 198.387H457.451Z" fill="#0B1A03"/>
<path d="M383.96 2.40065C383.944 2.33429 383.741 1.51454 382.992 1.16322C382.168 0.776772 381.254 1.1398 380.712 1.3584C379.701 1.76047 379.54 2.21328 378.545 2.40065C378.127 2.47872 377.705 2.56069 377.385 2.32258C376.952 1.99858 377.198 1.45209 376.768 0.815807C376.347 0.195143 375.55 -0.121044 375.375 0.0429049C375.203 0.210757 375.777 0.757254 375.991 1.74485C376.273 3.03302 375.738 4.16115 375.566 4.52808C375.179 5.34783 374.598 5.96849 373.247 6.92486C371.06 8.47066 370.264 8.48237 368.144 9.78616C366.141 11.0158 366.488 11.2266 364.353 12.5694C362.139 13.963 360.222 14.7085 359.519 14.9662C356.041 16.2504 355.986 15.3604 353.487 16.551C352.894 16.8321 351.063 17.7572 348.576 18.6004C347.966 18.8073 347.15 19.0649 346.721 18.6784C346.397 18.3896 346.467 17.7494 346.604 16.4729C346.713 15.4697 346.795 14.7827 347.221 14.0371C347.381 13.7561 347.482 13.6546 347.646 13.3033C347.779 13.0183 348.076 12.3625 347.994 11.6794C347.931 11.1329 347.674 11.0119 347.377 10.4029C347.225 10.0906 347.135 9.8291 347.084 9.59098C347.018 9.29431 346.99 9.07962 346.983 8.98984C346.893 8.22474 346.397 7.48697 346.292 7.33083C345.519 6.18318 344.222 5.78112 343.91 5.69134C342.27 5.22682 340.911 5.85919 340.466 6.07389C339.42 6.57744 338.823 7.3035 338.604 7.58846C338.26 8.04518 337.683 8.80246 337.64 9.8291C337.612 10.4771 337.819 10.7425 337.698 11.6091C337.624 12.14 337.526 12.1751 337.503 12.6475C337.495 12.7958 337.476 13.4633 337.788 14.2323C337.917 14.5485 338.159 15.0091 338.366 15.1887C338.487 15.2941 338.553 15.3838 338.592 15.4268C338.741 15.5712 339.697 16.4964 339.631 17.5854C339.592 18.253 339.17 18.9048 338.967 19.2171C338.955 19.2366 338.948 19.2445 338.944 19.2523C338.639 19.6621 337.991 19.6973 336.312 19.5606C334.79 19.4396 333.712 19.2835 333.45 19.2523C331.323 18.9868 329.929 20.2047 327.957 21.1064C326.868 21.6061 324.267 21.852 319.063 22.3439C312.484 22.9645 314.155 22.4063 310.321 22.8865C306.968 23.3041 304.773 23.8428 303.399 22.6171C303.137 22.3829 302.361 21.5983 301.08 20.8371C300.65 20.2672 299.784 20.2008 299.495 20.1813C299.421 20.1735 299.342 20.1735 299.264 20.1735C299.249 20.1735 299.233 20.1735 299.214 20.1735C299.155 20.1735 299.097 20.1774 299.038 20.1852C299.022 20.1852 299.011 20.1852 298.995 20.1891C298.351 20.2555 297.656 20.5365 297.191 21.0284C296.442 21.7037 296.125 22.5234 296.059 22.6835C295.793 23.351 294.743 24.686 292.639 27.356C291.592 28.6871 289.625 30.8965 286.119 33.5783C286.119 33.5783 282.417 36.8573 278.341 37.7629C277.885 37.8644 277.221 37.9542 276.92 37.6067C276.741 37.3959 276.838 36.8338 277.037 35.7135C277.151 35.0655 277.233 34.7962 277.471 34.6088C277.666 34.4566 277.787 34.4644 277.931 34.3746C278.002 34.3317 278.049 34.2848 278.064 34.2731C278.279 34.0818 278.263 33.6798 278.263 32.9888C278.263 32.7976 278.263 32.0091 278.064 31.8061C278.021 31.7631 277.994 31.7397 277.967 31.7163C277.49 31.3064 277.529 30.2915 277.533 30.1471C277.557 29.339 277.279 28.1523 276.705 27.3638C275.78 26.0952 274.101 25.9508 273.805 25.9234C273.5 25.8961 271.759 25.7439 270.548 26.9501C269.756 27.7425 269.155 29.1673 269.424 30.3852C269.541 30.9161 269.869 31.6265 269.518 32.2198C269.389 32.4384 269.252 32.4931 269.162 32.7624C269.022 33.1684 269.155 33.5431 269.346 34.0623C269.596 34.7337 269.803 35.2919 270.201 35.3622C270.525 35.4168 270.677 35.1046 270.927 35.2061C271.075 35.2646 271.095 35.409 271.36 36.3498C271.458 36.6933 271.548 37.0173 271.677 37.3725C271.954 38.1454 272.079 38.1923 272.032 38.3601C271.876 38.8988 270.275 38.9808 268.952 38.7934C267.433 38.5787 266.343 38.0127 266.047 37.8566C262.9 36.1937 261.369 34.9797 258.996 33.5822C257.27 32.5673 256.856 32.4384 255.747 31.8802C255.747 31.8802 254.994 31.5016 254.068 30.9902C249.68 28.5505 246.572 25.3964 246.572 25.3964C245.444 24.0888 244.597 23.0855 244.066 22.4493C243.265 21.4929 242.824 20.9503 242.051 20.8176C241.192 20.6732 240.446 21.126 240.243 21.247C239.533 21.6803 239.193 22.2424 238.783 23.0192C238.049 24.4088 237.085 25.6619 236.316 27.032C233.993 31.1815 233.001 31.1308 231.162 34.7962C231.076 34.9718 230.658 35.7135 229.823 37.1969C228.866 38.9027 228.417 39.6951 227.484 40.1714C227.043 40.3978 226.188 40.7179 225.926 40.4056C225.68 40.1128 226.063 39.379 226.121 39.2697C226.442 38.6607 226.914 38.3406 227.062 38.2313C228.093 37.4974 228.823 36.1546 229.073 35.1553C229.487 33.508 228.804 32.0052 228.554 31.4508C228.378 31.0605 228.128 30.514 227.613 29.9714C226.172 28.4529 224.08 28.5037 223.521 28.5349C221.358 28.6559 220.011 30.0065 219.527 30.5062C218.059 32.0247 217.626 33.9296 217.645 35.1553C217.657 35.8736 217.821 36.1898 217.907 36.3264C218.411 37.1539 219.254 36.8807 219.918 37.6653C220.449 38.2899 220.691 39.375 220.242 40.0387C219.871 40.593 219.148 40.6593 219.008 40.6749C217.997 40.7686 217.204 40.1011 216.443 39.4726C212.968 36.584 213.745 37.4545 212.98 36.6621C212.558 36.2249 204.359 27.6878 203.828 27.5902C203.816 27.5902 203.656 27.5629 203.445 27.4966C203.445 27.4966 203.32 27.4575 203.199 27.4107C202.102 26.9813 201.38 25.861 201.38 25.861C201.263 25.6814 201.189 25.5331 201.138 25.4355C200.81 24.7914 200.716 24.2527 200.666 24.12C200.299 23.2066 199.674 21.649 198.296 20.8098C198.046 20.6575 196.64 19.7988 195.504 20.3414C194.684 20.7317 194.829 21.4539 193.653 22.3126C193.134 22.6913 193.037 22.6054 191.967 23.2144C191.065 23.7296 190.475 24.1668 190.214 24.3503C188.691 25.4199 185.345 26.4582 185.345 26.4582C182.78 27.2311 181.499 27.6176 180.523 27.6098C177.509 27.5941 177.267 25.6346 172.66 23.4642C167.909 21.0908 165.328 21.8013 164.266 20.0915C164.145 19.9002 163.903 19.4943 163.914 18.9673C163.93 18.2178 164.445 17.8548 164.824 17.117C165.152 16.4768 165.179 15.9147 165.226 14.7866C165.289 13.3579 165.359 11.6286 164.512 9.83691C163.145 6.94438 160.123 5.34002 159.276 5.91384C159.1 6.03485 158.913 6.31591 158.495 6.40569C158.046 6.49937 157.734 6.28077 157.5 6.22612C156.637 6.02314 155.181 7.76022 154.431 9.63782C153.322 12.4211 153.42 16.3871 155.118 17.5074C155.462 17.7338 156.016 17.9407 156.243 18.534C156.489 19.1781 156.258 19.9471 155.938 20.4077C155.165 21.5163 153.408 21.4773 152.303 21.4343C148.731 21.286 145.135 20.7746 142.304 20.275C141.609 20.1188 136.487 18.9751 135.815 18.737C135.726 18.7058 135.64 18.6706 135.64 18.6706C133.906 17.9875 134.242 17.6752 131.009 15.6844C128.764 14.3026 126.636 12.706 124.302 11.492C123.911 11.289 123.29 10.9767 122.916 10.2897C122.619 9.74712 122.752 9.47387 122.611 7.21372C122.611 7.21372 122.564 6.47595 122.306 5.07458C122.158 4.26654 122.057 3.93864 121.83 3.87228C121.549 3.78641 121.143 4.12602 120.963 4.49685C120.854 4.72326 120.803 4.86379 121.006 6.28077C120.268 4.67251 119.394 3.61075 118.757 2.95495C118.098 2.27964 117.453 1.63555 116.852 1.81902C116.368 1.97906 116.024 2.66999 116.001 3.25162C115.97 4.1065 116.637 4.31729 116.606 5.2151C116.583 5.89432 116.188 6.01924 116.216 6.59696C116.247 7.26056 116.782 7.526 117.426 8.24816C118.754 9.73541 118.305 10.6488 119.546 11.816C120.108 12.343 120.413 12.3547 121.276 12.8426C122.857 13.7326 123.638 14.7046 124.954 16.0982C128.046 19.3655 129.592 21.0011 131.099 21.5827C133.168 22.379 134.488 23.1324 135.601 23.4993C140.344 25.0764 146.376 29.1478 149.32 34.1599C153.053 40.5227 151.483 47.8575 150.761 51.234C148.805 60.3683 143.347 65.7123 145.275 67.9295C146.743 69.6197 150.624 67.2073 152.545 69.4206C153.424 70.4317 153.389 72.1922 153.326 75.7171C153.291 77.6845 153.092 79.2146 152.912 80.5653C152.491 83.7701 152.241 83.7701 151.881 86.3933C151.483 89.2975 151.698 89.9494 151.187 94.4346C150.874 97.1788 150.738 97.9439 150.234 98.7168C148.61 101.215 146.209 102.152 146.209 102.152C145.627 102.378 144.858 102.585 144.479 103.311C144.229 103.791 144.143 104.51 144.479 104.962C144.959 105.607 146.072 105.411 146.861 105.275C148.52 104.986 149.664 104.084 149.847 103.936C151.21 102.839 151.21 101.965 152.143 101.84C152.838 101.746 153.123 102.191 154.048 102.019C154.368 101.961 155.095 101.824 155.348 101.305C155.661 100.661 154.958 100.024 154.7 98.8534C154.482 97.8697 154.708 97.0851 155.091 95.8203C156.137 92.354 156.656 90.6208 156.82 90.2031C157.992 87.2286 158.339 84.4298 159.026 78.8321C159.054 78.6174 159.069 78.4691 159.085 78.3168C159.085 78.3168 159.175 77.5088 159.229 76.6969C159.292 75.7366 159.331 74.062 159.717 71.2944C159.948 69.6588 160.131 69.1045 160.58 68.9015C161.15 68.6477 161.857 69.0927 161.966 69.163C164.328 70.6542 163.341 76.0098 164.262 78.7853C164.313 78.9414 164.59 79.7924 164.848 80.9322C164.918 81.2367 164.98 81.5802 165.043 81.9979C165.226 83.286 165.215 84.2541 165.215 84.582C165.219 89.0555 167.522 92.635 167.596 99.1188C167.608 100.122 167.483 100.63 167.51 101.66C167.553 103.358 167.588 104.217 168.158 104.736C168.725 105.251 169.498 105.173 170.712 105.048C171.688 104.951 173.117 104.802 173.613 103.799C173.644 103.737 173.89 103.221 173.742 102.64C173.589 102.035 173.117 101.793 172.703 101.391C172.149 100.852 171.946 100.185 171.536 98.8495C170.981 97.0461 170.973 95.5198 170.973 95.1489C170.958 90.8277 171.301 88.1225 171.255 85.7141C171.153 80.5926 169.345 80.6785 169.306 75.1979C169.291 73.0002 169.263 69.0693 171.407 67.9061C172.926 67.0785 174.878 67.9998 175.538 66.9575C175.979 66.2627 175.502 65.2321 175.342 64.8808C172.922 59.6032 169.685 51.6049 169.068 49.9107C166.53 42.9429 168.397 34.0311 172.078 32.4814C174.179 31.5992 175.647 33.6251 180.035 32.8288C182.241 32.4306 183.803 31.568 185.747 30.4906C189.851 28.2265 190.991 26.2123 194.411 25.6385C195.641 25.4316 196.679 25.455 197.374 25.5057C197.796 25.7517 198.374 26.1186 199.018 26.6222C199.369 26.8954 199.596 27.0945 199.842 27.3131C201.411 28.7106 201.36 29.097 201.333 29.2063C201.275 29.4444 201.095 29.4015 201.052 29.6318C200.974 30.0222 201.466 30.3774 202.793 31.6265C203.352 32.1496 203.219 31.9661 204.999 34.1677C206.299 35.7721 207.018 36.3849 209.056 38.6802C212.866 42.9741 214.776 45.125 215.029 45.6676C216.743 49.3525 215.147 50.8749 216.654 55.8012C217.231 57.6905 218.145 59.6852 217.821 61.2193C217.778 61.4184 217.618 62.0781 217.95 62.5894C218.278 63.0891 218.809 63.0305 219.152 63.2569C220.257 63.9908 218.742 67.2932 218.438 71.1812C218.387 71.8487 218.574 74.1127 218.957 78.6369C219.215 81.6739 219.297 82.1345 219.312 83.5203C219.344 86.0146 219.121 87.9547 218.922 89.6059C218.738 92.0807 219.105 92.7522 219.094 94.6571C219.082 96.5152 218.719 97.8502 219.375 98.2366C219.554 98.3147 219.672 98.2249 219.73 98.2718C219.925 98.4201 219.558 100.021 218.336 101.149C217.22 102.175 216.31 101.968 215.709 103.089C215.592 103.307 215.314 103.838 215.514 104.291C215.705 104.728 216.228 104.865 216.716 104.994C217.188 105.115 217.891 105.302 218.598 104.994C218.711 104.943 218.781 104.896 218.891 104.826C219.082 104.701 219.554 104.373 220.32 103.323C220.655 102.862 220.761 102.667 221.042 102.57C221.261 102.492 221.3 102.581 221.616 102.519C221.71 102.499 222.307 102.374 222.483 102.004C222.6 101.754 222.471 101.512 222.33 101.114C221.698 99.3257 222.163 98.139 222.233 98.0024C222.416 97.6472 222.53 97.7214 222.721 97.3349C223.127 96.5191 222.897 95.6603 222.818 95.227C222.514 93.5875 223.451 93.2674 223.791 90.5115C224.029 88.5793 223.572 88.6964 223.822 86.8656C224.08 84.9958 224.599 84.5664 224.989 82.7864C225.356 81.1196 225.153 80.3545 225.153 78.2036C225.149 74.6475 225.7 70.5254 226.192 70.5136C226.649 70.5019 227.113 74.0229 227.718 78.6408C228.253 82.72 228.085 82.5756 228.499 85.0622C229.186 89.2116 229.768 90.0899 230.283 93.4548C230.44 94.4814 230.494 95.0904 230.869 95.9531C231.412 97.1983 232.021 97.5808 232.072 98.6387C232.107 99.3648 231.951 99.4389 231.81 100.309C231.681 101.145 231.997 101.812 232.396 102.652C232.774 103.452 233.454 104.884 234.926 105.361C235.207 105.45 236.257 105.747 237.229 105.193C237.378 105.107 238.26 104.607 238.268 103.889C238.272 103.545 238.076 103.315 237.198 102.452C235.804 101.086 235.519 100.907 235.218 100.38C234.855 99.7395 234.785 99.1384 234.73 98.4748C234.508 95.6759 234.754 93.5446 234.762 91.4171C234.769 89.9455 234.648 88.8408 234.406 86.6353C234.11 83.9184 233.825 82.8332 233.626 81.385C233.055 77.1809 234.258 77.0989 234.047 71.9892C233.907 68.5853 233.376 65.279 233.376 65.279C233.106 63.5927 232.927 62.9798 232.899 61.6214C232.864 59.7945 233.157 59.0528 232.962 57.3704C232.833 56.2657 232.618 55.8207 232.247 54.4857C231.623 52.245 230.943 49.8014 231.123 47.0377C231.256 44.9571 231.833 43.3879 232.259 42.2559C232.958 40.3978 233.551 39.9684 234.758 37.5755C236.507 34.1131 236.437 33.3363 238.459 29.7177C239.853 27.2233 240.454 26.6456 240.86 26.306C241.282 25.9547 241.676 25.7048 242.031 25.5018C243.39 25.9078 244.105 26.5129 246.99 29.1868C250.09 32.0598 251.581 33.5119 253.065 34.8782C254.638 36.3303 256.196 37.677 257.719 38.93C257.719 38.93 259.273 40.0972 260.315 40.8779C262.642 42.6267 263.806 43.5011 264.04 43.7704C264.961 44.84 264.501 44.9181 266.668 50.4806C267.089 51.5697 267.417 52.3504 267.378 53.4786C267.331 54.8097 266.824 55.2469 266.39 56.6365C265.754 58.6859 266.457 59.0294 266.152 62.2811C265.926 64.7208 265.508 64.7364 265.363 66.938C265.239 68.8546 265.496 69.6783 265.68 71.712C265.93 74.5187 265.559 74.3391 265.481 79.8822C265.41 84.988 265.723 85.5267 265.125 87.4589C264.473 89.5708 263.868 89.684 263.743 91.3664C263.579 93.607 264.403 96.7845 264.493 97.128C264.743 98.0805 264.989 98.7714 264.649 99.4975C264.251 100.348 263.177 100.973 262.794 101.196C262.021 101.644 261.592 101.683 261.451 102.105C261.295 102.566 261.611 103.136 261.963 103.448C262.685 104.08 263.786 103.811 264.294 103.686C264.524 103.627 266.418 103.136 266.98 101.754C267.089 101.484 267.144 101.196 267.413 101.043C267.776 100.844 268.108 101.117 268.795 101.121C269.174 101.121 269.701 101.043 269.978 100.844C270.818 100.251 270.213 98.0219 270.095 97.5691C269.818 96.4917 270.064 96.7103 271.439 84.664C271.571 83.4812 271.891 80.6551 272.465 76.9272C272.739 75.1472 273.086 73.0431 273.254 73.0588C273.43 73.0783 272.969 75.4009 273.453 78.6642C273.773 80.8151 274.187 81.2445 274.519 83.7974C274.753 85.6009 274.761 87.01 274.757 87.5487C274.726 91.5694 273.754 91.9324 274.008 95.0865C274.199 97.4754 274.777 97.5184 274.757 99.4272C274.757 99.6888 274.734 100.793 275.191 100.965C275.46 101.067 275.686 100.774 275.979 100.887C276.338 101.028 276.424 101.633 276.491 102.191C276.639 103.378 276.346 103.709 276.647 104.166C276.897 104.545 277.322 104.658 277.83 104.798C278.08 104.865 278.904 105.076 279.844 104.72C280.184 104.592 281.07 104.252 281.149 103.655C281.191 103.303 280.918 103.163 280.321 102.273C279.743 101.41 279.454 100.969 279.493 100.458C279.536 99.8605 279.977 99.7044 280.282 99.1149C280.828 98.061 280.313 96.8509 280.083 96.117C279.466 94.134 280.231 93.3806 280.516 89.2897C280.688 86.8305 280.426 86.8695 280.399 82.8957C280.372 79.3044 280.563 76.3885 280.832 72.278C281.207 66.5672 281.473 65.8606 280.871 64.4241C280.703 64.022 279.887 62.1679 280.477 61.6604C280.68 61.4847 281.074 61.4496 281.344 61.4223C281.777 61.3832 282.175 61.4535 282.648 61.1842C283.112 60.9187 283.105 60.1068 283.062 59.2519C283.011 58.2175 282.984 57.7022 282.905 57.3118C282.714 56.3672 282.679 55.1493 282.609 52.7213C282.535 50.2269 282.804 48.2361 282.925 47.4515C283.538 43.4308 284.694 41.7211 285.174 41.0965C285.268 40.9755 285.451 40.7452 285.685 40.4758C286.958 39.0081 288.176 38.1649 288.489 37.9385C289.968 36.8768 291.936 34.7376 293.146 32.8874C294.892 30.2173 296.793 25.4979 298.023 25.0568C298.042 25.049 298.195 24.9944 298.409 24.9163C298.975 25.2598 299.479 25.3262 300.151 25.4199C301.673 25.6268 303.184 25.9508 304.715 26.0757C307.452 26.3021 307.256 26.6456 310.399 27.0437C312.73 27.3365 314.862 27.6059 317.63 27.3912C320.383 27.1765 321.753 26.6417 323.545 27.5083C324.217 27.8323 324.361 28.0704 325.673 28.7847C327.832 29.9597 328.32 29.7918 329.117 30.3305C331.924 32.2316 331.303 38.0088 331.088 39.9957C330.846 42.2637 330.546 41.7055 330.315 43.8993C329.812 48.6772 331.034 53.1858 329.659 53.7987C329.242 53.986 329.007 53.9275 328.578 54.3022C327.539 55.2039 327.75 56.9957 327.805 57.55C328.344 63.054 326.075 76.4626 328.656 76.9974C329.011 77.0716 329.499 76.9077 329.776 77.2277C330.241 77.7625 329.589 79.0078 329.351 79.5074C328.105 82.1111 328.148 85.0075 328.191 88.1694C328.226 90.7028 328.679 90.9604 328.656 94.2004C328.644 95.5276 328.558 96.8118 328.113 98.2991C327.641 99.8761 327.301 101.012 326.259 101.703C325.716 102.062 325.4 102.125 324.404 102.862C323.569 103.479 322.975 103.944 323.01 104.408C323.057 104.986 324.064 105.325 324.673 105.528C325.208 105.708 326.794 106.243 328.09 105.497C328.422 105.306 328.258 105.306 329.199 104.564C329.929 103.987 330.296 103.698 330.823 103.405C331.732 102.897 332.08 102.944 332.291 102.554C332.595 101.992 332.232 101.254 332.135 101.047C331.377 99.3843 331.975 96.5971 332.751 92.9668C333.915 87.537 335.445 87.0764 335.149 84.5391C335.067 83.8365 334.77 82.3297 335.613 81.3694C335.957 80.9791 336.402 80.7722 336.695 80.132C337.011 79.445 336.902 78.7853 336.874 78.5628C336.652 76.6773 338.495 74.4796 339.732 71.31C341.075 67.8709 340.9 65.3453 341.333 65.361C341.603 65.3727 341.669 66.329 342.223 68.839C342.622 70.6542 342.895 71.8838 343.344 73.2461C344.328 76.2167 345.089 76.5602 345.315 78.5823C345.479 80.0227 345.144 80.3155 345.046 82.0252C344.991 82.9503 345.015 84.1409 346.592 89.8752C348.123 95.4339 348.466 95.6564 348.294 96.9914C348.103 98.4787 348.341 100.021 347.986 101.477C347.904 101.808 347.728 102.452 348.064 102.905C348.415 103.385 349.087 103.311 349.844 103.409C351.227 103.588 351.148 104.088 353.636 105.189C356.072 106.266 356.962 106.001 357.27 105.884C357.473 105.806 358.317 105.458 358.43 104.802C358.531 104.229 358.04 103.721 357.657 103.335C356.806 102.472 356.052 102.304 355.26 101.867C355.26 101.867 353.987 101.164 352.784 99.3921C351.957 98.1703 351.941 96.8821 351.933 93.3611C351.922 87.0022 353.21 86.4245 352.32 83.2314C351.828 81.467 350.703 79.8509 351.469 78.8243C351.906 78.2388 352.535 78.3832 353.093 77.8953C354.311 76.8296 353.335 74.3586 352.886 71.7355C351.937 66.1963 354.147 64.713 352.937 58.4087C352.687 57.1011 352.378 56.0549 352.164 55.3913C352.007 54.0758 352.257 53.6464 352.511 53.4981C353.147 53.1194 353.799 53.7713 354.444 53.42C355.537 52.8228 355.162 49.8014 354.674 45.9174C354.67 45.8471 353.963 35.1202 354.288 27.5122C354.307 27.0711 354.428 24.725 355.525 24.3425C356.068 24.1512 356.736 24.4869 357.032 24.1122C357.274 23.8077 356.966 23.4252 357.149 22.9919C357.423 22.3361 358.528 22.2268 358.852 22.1799C360.718 21.9223 361.307 20.5014 365.309 17.8119C367.894 16.0748 367.718 16.6213 369.873 15.0677C371.701 13.7483 372.942 12.8543 374.242 11.2773C375.496 9.76274 375.57 9.11084 376.757 8.37698C377.702 7.79535 377.908 8.04908 379.927 7.06148C380.641 6.71407 381.227 6.30029 382.402 5.47664C382.906 5.12142 383.164 4.81304 383.445 4.35632C383.726 3.90351 384.148 3.2243 383.948 2.42407L383.96 2.40065Z" fill="#0B1A03"/>
</svg>
